<svg version="1.1" id="Layer_1" xmlns="http://www.w3.org/2000/svg" x="0px" y="0px"
	 width="100%" viewBox="0 0 1904 624" enable-background="new 0 0 1904 624" xml:space="preserve">
<path fill="#FEFEFE" opacity="1.000000" stroke="none" 
	d="
M1.000000,334.000000 
	C1.000000,223.033020 1.000000,112.066040 1.000000,1.000000 
	C351.362701,1.000000 701.725403,1.000000 1052.579590,1.467482 
	C1053.071167,96.170479 1053.071167,190.405991 1053.071167,284.473083 
	C1082.251221,284.473083 1110.652954,284.473083 1139.558838,284.473083 
	C1139.558838,214.538773 1139.558838,144.962219 1139.558838,75.491806 
	C1161.652222,75.491806 1183.235840,75.491806 1205.240356,75.491806 
	C1205.240356,145.393723 1205.240356,214.971771 1205.240356,284.519684 
	C1234.071655,284.519684 1262.476440,284.519684 1291.332642,284.519684 
	C1291.332642,214.628281 1291.332642,145.051727 1291.332642,74.968147 
	C1316.833496,74.968147 1341.884521,74.968147 1367.000000,74.968147 
	C1367.000000,49.972263 1367.000000,25.486132 1367.000000,1.000000 
	C1546.305298,1.000000 1725.610596,1.000000 1904.958008,1.000000 
	C1904.958008,208.939407 1904.958008,416.878815 1904.958008,624.909119 
	C1270.333374,624.909119 635.666687,624.909119 1.000000,624.909119 
	C1.000000,623.313477 1.000000,621.647339 1.468657,619.491089 
	C29.870455,619.000916 57.803593,619.000916 86.237427,619.000916 
	C86.237427,582.773743 86.237427,547.060669 86.237427,511.169128 
	C123.221886,511.169128 159.702927,511.136017 196.183060,511.305389 
	C197.476120,511.311401 199.576599,513.107056 199.929916,514.433716 
	C212.782089,562.693481 243.015579,595.216736 289.242828,613.195679 
	C305.738708,619.611328 322.908295,623.101257 341.041901,623.869141 
	C341.383514,616.235046 341.836212,608.952576 341.999817,601.663513 
	C342.162750,594.404114 342.035522,587.138184 342.031921,579.875244 
	C283.256989,575.252502 245.316574,522.718628 251.045776,469.290497 
	C256.296417,420.325195 298.504333,381.637329 348.665009,381.138428 
	C397.870178,380.649048 442.440948,415.817291 448.632233,469.905029 
	C451.306427,493.267120 446.178436,515.298279 432.949890,535.027893 
	C414.408112,562.681763 388.136047,577.244141 354.803345,579.895142 
	C355.320221,594.864380 355.822845,609.420654 356.342590,624.472168 
	C419.172638,620.425476 467.714203,594.846558 496.298920,535.232788 
	C496.298920,563.967407 496.298920,591.306396 496.298920,618.657593 
	C525.395264,618.657593 553.942749,618.657593 582.913025,618.657593 
	C582.913025,588.248657 582.913025,558.180664 582.913025,527.977905 
	C593.463318,527.977905 603.588196,527.977905 613.883179,527.977905 
	C626.931274,558.361633 639.956360,588.691895 652.856140,618.730347 
	C685.722534,618.730347 718.113098,618.730347 750.936646,618.730347 
	C733.711548,585.047607 716.685547,551.754089 699.638184,518.418945 
	C727.224365,503.847595 743.465820,481.540863 749.351746,450.445923 
	C765.649536,507.345917 781.624939,563.120605 797.580139,618.824707 
	C827.983398,618.824707 857.933411,618.824707 888.173401,618.824707 
	C900.246399,565.765686 912.295959,512.809875 924.345459,459.854065 
	C924.656006,459.852600 924.966553,459.851166 925.277161,459.849731 
	C937.315735,512.776917 949.354248,565.704041 961.429077,618.790466 
	C991.570984,618.790466 1021.529297,618.790466 1051.951660,618.790466 
	C1079.023682,524.359192 1106.140747,429.771210 1133.369141,334.794556 
	C1100.767700,334.794556 1068.729126,334.794556 1036.525513,334.794556 
	C1024.555786,392.230621 1012.639648,449.409668 1000.499634,507.662903 
	C999.765991,505.410889 999.289062,504.205566 998.979187,502.958710 
	C985.393005,448.290405 971.759827,393.633575 958.378723,338.915070 
	C957.422302,335.004059 955.780334,334.396149 952.332214,334.427338 
	C936.335449,334.572021 920.336670,334.491333 904.338623,334.491333 
	C900.368469,334.491333 896.398376,334.491333 892.322021,334.491333 
	C878.069031,392.101105 863.910461,449.329346 849.751892,506.557587 
	C849.460144,506.547333 849.168396,506.537109 848.876648,506.526855 
	C836.814575,449.302917 824.752502,392.078979 812.686707,334.837463 
	C780.566284,334.837463 748.672058,334.837463 716.409546,334.837463 
	C718.819946,343.699768 721.117920,352.148804 723.254883,360.754333 
	C723.093872,360.910828 722.774292,361.226318 722.449463,361.134155 
	C715.803406,356.478271 709.820007,351.326141 703.095642,347.464386 
	C685.112366,337.136749 665.252991,334.471252 644.859619,334.483032 
	C597.195984,334.510529 549.532410,334.491486 501.868805,334.491333 
	C500.106018,334.491333 498.343231,334.491333 496.070190,334.491333 
	C496.070190,362.718658 496.070190,390.200958 496.070190,417.683258 
	C494.638916,416.343048 493.911713,414.916229 493.234406,413.466095 
	C479.002380,382.994873 456.357391,360.757385 426.257568,346.249176 
	C392.631470,330.041321 357.059540,326.425964 320.536591,332.352478 
	C290.511047,337.224701 263.420166,349.144409 241.115265,370.178375 
	C231.912445,378.856781 224.142380,389.054535 215.768845,398.506897 
	C215.768845,377.694794 215.768845,356.329895 215.768845,334.491333 
	C213.321472,334.491333 211.352264,334.491333 209.383057,334.491333 
	C141.887390,334.491333 74.391731,334.495483 6.896078,334.470734 
	C4.930661,334.470001 2.965357,334.163757 1.000000,334.000000 
M1096.225098,572.729736 
	C1090.641235,587.968140 1085.057495,603.206604 1079.342285,618.803711 
	C1110.847534,618.803711 1141.768921,618.803711 1172.662720,618.803711 
	C1176.046509,607.832520 1179.528809,597.084717 1182.605347,586.222046 
	C1183.478638,583.138611 1184.882080,582.443298 1187.824463,582.451233 
	C1221.487915,582.541870 1255.151978,582.554138 1288.815308,582.437012 
	C1292.068726,582.425720 1293.363037,583.440674 1294.255249,586.581360 
	C1297.333130,597.414978 1300.797852,608.138733 1304.034302,618.641785 
	C1355.484985,618.641785 1406.553223,618.641785 1458.030273,618.641785 
	C1458.030273,588.210754 1458.030273,558.137207 1458.030273,527.837769 
	C1467.084717,527.837769 1475.737061,528.046997 1484.370972,527.738342 
	C1488.000732,527.608582 1489.531128,528.944031 1490.882935,532.142151 
	C1502.515747,559.661499 1514.372803,587.085999 1526.033691,614.593567 
	C1527.338135,617.670959 1528.699707,619.117615 1532.443970,619.109863 
	C1603.604004,618.962341 1674.764648,618.981323 1745.925049,619.013306 
	C1766.871338,619.022766 1787.454102,616.518250 1807.384888,609.929321 
	C1845.182007,597.434265 1874.195190,574.616394 1890.530640,537.540588 
	C1903.791992,507.442047 1905.390137,476.055756 1899.317749,444.107910 
	C1894.237183,417.377899 1882.307739,394.058502 1862.388794,375.385803 
	C1833.998657,348.771790 1799.191162,336.529266 1761.128052,335.284119 
	C1715.178833,333.781036 1669.151978,334.645752 1623.158813,334.510468 
	C1621.914917,334.506805 1620.670288,334.788269 1618.889648,335.000763 
	C1618.889648,354.457489 1618.889648,373.538788 1618.889648,392.620117 
	C1608.507812,368.751068 1591.622070,352.040741 1567.736450,342.390564 
	C1552.507690,336.237823 1536.528809,334.507721 1520.282227,334.499908 
	C1472.286377,334.476837 1424.290649,334.489441 1376.294800,334.499542 
	C1374.841431,334.499847 1373.387939,334.626892 1371.333740,334.722961 
	C1371.333740,404.981262 1371.333740,474.934143 1371.333740,544.887085 
	C1369.626221,543.274597 1368.894653,541.514526 1368.235229,539.727783 
	C1343.522461,472.762787 1318.798218,405.801941 1294.168213,338.806488 
	C1293.069336,335.817535 1291.947876,334.367462 1288.337036,334.386627 
	C1255.007568,334.563660 1221.676758,334.536072 1188.346680,334.418457 
	C1185.166016,334.407227 1183.833984,335.384430 1182.723267,338.405975 
	C1154.083862,416.309906 1125.317749,494.167267 1096.225098,572.729736 
M42.499943,80.164696 
	C69.596863,80.164696 96.693787,80.164696 124.349823,80.164696 
	C124.349823,69.312965 124.349823,59.016861 124.349823,49.378834 
	C145.734451,70.733955 167.150757,92.120735 188.034164,112.975334 
	C166.969223,134.073639 145.607193,155.469513 124.130630,176.980087 
	C124.130630,166.767303 124.130630,156.367599 124.130630,145.822174 
	C86.500130,145.822174 49.276592,145.822174 12.004354,145.822174 
	C12.004354,198.234360 12.004354,250.324020 12.004354,302.595337 
	C40.681843,302.595337 69.090652,302.595337 98.013046,302.595337 
	C98.013046,272.123993 98.013046,241.888885 98.013046,211.507568 
	C104.356232,211.507568 110.186714,211.545166 116.016563,211.500717 
	C135.841934,211.349564 155.727783,212.090530 175.478378,210.789001 
	C206.731476,208.729462 232.953873,196.313721 250.991119,169.502136 
	C251.359787,168.954102 251.970215,168.568695 253.176559,167.450500 
	C253.176559,213.165298 253.176559,257.897278 253.176559,302.745544 
	C336.554840,302.745544 419.513855,302.745544 502.663574,302.745544 
	C506.038635,291.827972 509.512329,281.098633 512.606628,270.260986 
	C513.490173,267.166138 514.672852,266.075012 517.984192,266.087952 
	C551.648193,266.219238 585.313110,266.221405 618.977051,266.085327 
	C622.325867,266.071808 623.431152,267.257935 624.302795,270.299042 
	C627.410034,281.140472 630.874023,291.879639 634.210510,302.681885 
	C665.219421,302.681885 696.009949,302.681885 727.571106,302.681885 
	C692.476074,207.570129 657.523743,112.844963 622.632996,18.286709 
	C586.188782,18.286709 550.373657,18.286709 514.420410,18.286709 
	C513.721558,20.022289 513.002441,21.684008 512.376709,23.380199 
	C487.900757,89.727264 463.402252,156.066055 439.042969,222.455963 
	C437.601379,226.385056 435.959839,228.012207 431.408264,227.969696 
	C402.412659,227.698776 373.413300,227.831818 344.415161,227.831818 
	C342.659332,227.831818 340.903503,227.831818 338.729065,227.831818 
	C338.729065,157.560257 338.729065,87.982353 338.729065,18.474550 
	C309.886597,18.474550 281.472534,18.474550 252.651611,18.474550 
	C252.651611,33.483597 252.651611,48.186134 252.651611,63.373127 
	C248.580429,58.187523 245.211594,53.218563 241.145370,48.907375 
	C237.055710,44.571331 232.570709,40.475567 227.740433,36.993870 
	C208.040863,22.794308 185.457977,18.223337 161.699570,18.186480 
	C113.202812,18.111242 64.705864,18.161469 16.208996,18.173809 
	C14.787559,18.174171 13.366160,18.329214 11.940704,18.412373 
	C11.940704,39.167217 11.940704,59.442604 11.940704,80.164696 
	C21.926929,80.164696 31.713434,80.164696 42.499943,80.164696 
M863.835083,282.499756 
	C863.835083,253.179214 863.755310,223.858154 863.952454,194.538940 
	C863.973267,191.442230 864.987488,187.967331 866.609131,185.323090 
	C899.795166,131.209686 933.137146,77.191994 966.443970,23.152699 
	C967.353271,21.677387 968.215942,20.173330 969.409424,18.161751 
	C937.574829,18.161751 906.615967,18.111902 875.658630,18.305729 
	C874.073853,18.315649 871.872803,20.067259 871.021301,21.598753 
	C861.984497,37.852482 853.157471,54.222961 844.283936,70.567413 
	C836.450500,84.996094 828.631409,99.432533 820.606506,114.233459 
	C803.513489,83.209335 786.662048,52.679287 769.898682,22.100962 
	C768.427795,19.417858 766.999390,18.021393 763.505005,18.045500 
	C734.019287,18.248953 704.531616,18.157652 675.044495,18.175526 
	C673.848389,18.176250 672.652405,18.382252 671.068115,18.528429 
	C672.154907,20.295729 672.929077,21.567032 673.715027,22.831011 
	C707.412598,77.024948 741.142700,131.198730 774.714233,185.470642 
	C776.347717,188.111374 777.349060,191.607712 777.365967,194.712555 
	C777.551086,228.863297 777.482239,263.015381 777.482239,297.167114 
	C777.482239,298.952576 777.482239,300.738037 777.482239,302.590363 
	C806.507507,302.590363 834.921814,302.590363 863.835083,302.590363 
	C863.835083,296.068726 863.835083,289.784088 863.835083,282.499756 
M433.166565,443.351868 
	C413.960907,400.061768 365.296844,378.649597 321.376343,393.716522 
	C274.112457,409.930420 249.075897,457.529114 261.787598,504.870392 
	C273.034424,546.755981 312.576416,571.287842 343.469727,570.619629 
	C341.756165,565.359131 340.873657,559.964417 338.313934,555.540039 
	C335.705353,551.031250 331.572876,547.355591 327.881836,543.533081 
	C322.283264,537.735229 319.175537,531.028870 319.586548,522.881104 
	C320.476318,505.243103 321.373474,487.605347 322.313080,469.969910 
	C322.747406,461.818451 323.180603,453.663147 323.895966,445.534393 
	C324.004303,444.303314 325.649597,443.207489 326.583923,442.049072 
	C327.627563,443.141418 329.003876,444.077515 329.612946,445.374023 
	C330.129669,446.474030 329.779999,447.990295 329.780243,449.322357 
	C329.784943,474.318634 329.783234,499.314941 329.788971,524.311218 
	C329.789307,525.809998 329.388489,527.532227 329.989044,528.748169 
	C330.664642,530.116089 332.282562,531.914856 333.458099,531.891541 
	C334.672028,531.867493 336.177124,530.060364 336.930847,528.690002 
	C337.498444,527.658142 337.099091,526.084412 337.099274,524.751892 
	C337.103088,499.755585 337.099854,474.759308 337.108551,449.763000 
	C337.109070,448.265839 336.712067,446.490479 337.369812,445.343262 
	C338.159241,443.966431 339.897797,442.270844 341.196747,442.294312 
	C342.469971,442.317291 344.032837,444.134583 344.850952,445.527222 
	C345.439697,446.529388 345.037567,448.127319 345.037842,449.459503 
	C345.042664,474.455780 345.040039,499.452087 345.045593,524.448364 
	C345.045929,525.946716 344.620239,527.708618 345.258179,528.874268 
	C345.995117,530.220886 347.605682,531.684753 349.001617,531.872437 
	C349.981384,532.004150 351.706879,530.286804 352.244873,529.029480 
	C352.856873,527.599182 352.582123,525.762207 352.583130,524.101868 
	C352.598297,499.438843 352.593079,474.775848 352.601868,450.112823 
	C352.602386,448.615204 352.236664,446.900146 352.836975,445.676697 
	C353.538483,444.247101 355.322418,442.136292 356.262573,442.312897 
	C357.770630,442.596161 359.344482,444.309082 360.181183,445.812561 
	C360.827545,446.974121 360.423798,448.740479 360.424347,450.237946 
	C360.433319,474.900970 360.427460,499.563965 360.444489,524.226990 
	C360.445648,525.886230 360.188202,527.727539 360.813019,529.149353 
	C361.356201,530.385315 362.983917,531.916565 364.123291,531.909241 
	C365.349731,531.901367 367.000000,530.487854 367.661499,529.255920 
	C368.298004,528.070557 367.959015,526.333374 367.959656,524.838684 
	C367.970642,499.509125 367.965576,474.179535 367.973206,448.849976 
	C367.973633,447.352478 367.703339,445.722046 368.207642,444.401062 
	C368.586182,443.409515 369.935089,442.362610 370.987366,442.196106 
	C371.753937,442.074860 373.124969,443.169525 373.534485,444.045593 
	C374.063263,445.176636 373.958893,446.627258 374.029236,447.945496 
	C375.121277,468.408844 375.272186,488.977295 377.563141,509.304779 
	C379.476501,526.281860 376.053406,539.970276 362.584137,551.148010 
	C356.614075,556.102295 354.830902,563.589478 355.144501,571.441284 
	C417.753296,568.369629 459.224854,503.172943 433.166565,443.351868 
z"/>
<path fill="#010101" opacity="1.000000" stroke="none" 
	d="
M723.415894,360.597839 
	C721.117920,352.148804 718.819946,343.699768 716.409546,334.837463 
	C748.672058,334.837463 780.566284,334.837463 812.686707,334.837463 
	C824.752502,392.078979 836.814575,449.302917 848.876648,506.526855 
	C849.168396,506.537109 849.460144,506.547333 849.751892,506.557587 
	C863.910461,449.329346 878.069031,392.101105 892.322021,334.491333 
	C896.398376,334.491333 900.368469,334.491333 904.338623,334.491333 
	C920.336670,334.491333 936.335449,334.572021 952.332214,334.427338 
	C955.780334,334.396149 957.422302,335.004059 958.378723,338.915070 
	C971.759827,393.633575 985.393005,448.290405 998.979187,502.958710 
	C999.289062,504.205566 999.765991,505.410889 1000.499634,507.662903 
	C1012.639648,449.409668 1024.555786,392.230621 1036.525513,334.794556 
	C1068.729126,334.794556 1100.767700,334.794556 1133.369141,334.794556 
	C1106.140747,429.771210 1079.023682,524.359192 1051.951660,618.790466 
	C1021.529297,618.790466 991.570984,618.790466 961.429077,618.790466 
	C949.354248,565.704041 937.315735,512.776917 925.277161,459.849731 
	C924.966553,459.851166 924.656006,459.852600 924.345459,459.854065 
	C912.295959,512.809875 900.246399,565.765686 888.173401,618.824707 
	C857.933411,618.824707 827.983398,618.824707 797.580139,618.824707 
	C781.624939,563.120605 765.649536,507.345917 749.351746,450.445923 
	C743.465820,481.540863 727.224365,503.847595 699.638184,518.418945 
	C716.685547,551.754089 733.711548,585.047607 750.936646,618.730347 
	C718.113098,618.730347 685.722534,618.730347 652.856140,618.730347 
	C639.956360,588.691895 626.931274,558.361633 613.883179,527.977905 
	C603.588196,527.977905 593.463318,527.977905 582.913025,527.977905 
	C582.913025,558.180664 582.913025,588.248657 582.913025,618.657593 
	C553.942749,618.657593 525.395264,618.657593 496.298920,618.657593 
	C496.298920,591.306396 496.298920,563.967407 496.298920,535.232788 
	C467.714203,594.846558 419.172638,620.425476 356.342590,624.472168 
	C355.822845,609.420654 355.320221,594.864380 354.803345,579.895142 
	C388.136047,577.244141 414.408112,562.681763 432.949890,535.027893 
	C446.178436,515.298279 451.306427,493.267120 448.632233,469.905029 
	C442.440948,415.817291 397.870178,380.649048 348.665009,381.138428 
	C298.504333,381.637329 256.296417,420.325195 251.045776,469.290497 
	C245.316574,522.718628 283.256989,575.252502 342.031921,579.875244 
	C342.035522,587.138184 342.162750,594.404114 341.999817,601.663513 
	C341.836212,608.952576 341.383514,616.235046 341.041901,623.869141 
	C322.908295,623.101257 305.738708,619.611328 289.242828,613.195679 
	C243.015579,595.216736 212.782089,562.693481 199.929916,514.433716 
	C199.576599,513.107056 197.476120,511.311401 196.183060,511.305389 
	C159.702927,511.136017 123.221886,511.169128 86.237427,511.169128 
	C86.237427,547.060669 86.237427,582.773743 86.237427,619.000916 
	C57.803593,619.000916 29.870455,619.000916 1.468657,619.000488 
	C1.000000,524.312439 1.000000,429.624878 1.000000,334.468658 
	C2.965357,334.163757 4.930661,334.470001 6.896078,334.470734 
	C74.391731,334.495483 141.887390,334.491333 209.383057,334.491333 
	C211.352264,334.491333 213.321472,334.491333 215.768845,334.491333 
	C215.768845,356.329895 215.768845,377.694794 215.768845,398.506897 
	C224.142380,389.054535 231.912445,378.856781 241.115265,370.178375 
	C263.420166,349.144409 290.511047,337.224701 320.536591,332.352478 
	C357.059540,326.425964 392.631470,330.041321 426.257568,346.249176 
	C456.357391,360.757385 479.002380,382.994873 493.234406,413.466095 
	C493.911713,414.916229 494.638916,416.343048 496.070190,417.683258 
	C496.070190,390.200958 496.070190,362.718658 496.070190,334.491333 
	C498.343231,334.491333 500.106018,334.491333 501.868805,334.491333 
	C549.532410,334.491486 597.195984,334.510529 644.859619,334.483032 
	C665.252991,334.471252 685.112366,337.136749 703.095642,347.464386 
	C709.820007,351.326141 715.803406,356.478271 722.551270,361.419922 
	C723.224792,361.812103 723.471680,361.826416 723.718506,361.840729 
	C723.617615,361.426453 723.516724,361.012146 723.415894,360.597839 
M171.499725,439.503937 
	C180.813766,439.503937 190.127792,439.503937 199.072464,439.503937 
	C203.380905,428.325897 207.578995,417.434174 211.825394,406.417114 
	C170.016953,406.417114 128.199890,406.417114 86.348129,406.417114 
	C86.348129,417.527618 86.348129,428.381714 86.348129,439.503906 
	C114.624771,439.503906 142.562241,439.503906 171.499725,439.503937 
M656.173035,414.313324 
	C651.195862,411.856171 646.412048,407.946533 641.200134,407.252747 
	C631.222534,405.924530 621.002869,406.332642 610.881226,406.193176 
	C601.618225,406.065521 592.352051,406.166107 583.061523,406.166107 
	C583.061523,423.074066 583.061523,439.424774 583.061523,455.941986 
	C601.826904,455.941986 620.287903,456.412750 638.708740,455.756409 
	C648.931519,455.392151 657.179382,450.103027 661.300293,440.272461 
	C665.189697,430.994171 663.310547,422.389038 656.173035,414.313324 
z"/>
<path fill="#000000" opacity="1.000000" stroke="none" 
	d="
M1366.531372,1.000000 
	C1367.000000,25.486132 1367.000000,49.972263 1367.000000,74.968147 
	C1341.884521,74.968147 1316.833496,74.968147 1291.332642,74.968147 
	C1291.332642,145.051727 1291.332642,214.628281 1291.332642,284.519684 
	C1262.476440,284.519684 1234.071655,284.519684 1205.240356,284.519684 
	C1205.240356,214.971771 1205.240356,145.393723 1205.240356,75.491806 
	C1183.235840,75.491806 1161.652222,75.491806 1139.558838,75.491806 
	C1139.558838,144.962219 1139.558838,214.538773 1139.558838,284.473083 
	C1110.652954,284.473083 1082.251221,284.473083 1053.071167,284.473083 
	C1053.071167,190.405991 1053.071167,96.170479 1053.035645,1.467482 
	C1157.354248,1.000000 1261.708496,1.000000 1366.531372,1.000000 
z"/>
<path fill="#010101" opacity="1.000000" stroke="none" 
	d="
M1096.399414,572.381226 
	C1125.317749,494.167267 1154.083862,416.309906 1182.723267,338.405975 
	C1183.833984,335.384430 1185.166016,334.407227 1188.346680,334.418457 
	C1221.676758,334.536072 1255.007568,334.563660 1288.337036,334.386627 
	C1291.947876,334.367462 1293.069336,335.817535 1294.168213,338.806488 
	C1318.798218,405.801941 1343.522461,472.762787 1368.235229,539.727783 
	C1368.894653,541.514526 1369.626221,543.274597 1371.333740,544.887085 
	C1371.333740,474.934143 1371.333740,404.981262 1371.333740,334.722961 
	C1373.387939,334.626892 1374.841431,334.499847 1376.294800,334.499542 
	C1424.290649,334.489441 1472.286377,334.476837 1520.282227,334.499908 
	C1536.528809,334.507721 1552.507690,336.237823 1567.736450,342.390564 
	C1591.622070,352.040741 1608.507812,368.751068 1618.889648,392.620117 
	C1618.889648,373.538788 1618.889648,354.457489 1618.889648,335.000763 
	C1620.670288,334.788269 1621.914917,334.506805 1623.158813,334.510468 
	C1669.151978,334.645752 1715.178833,333.781036 1761.128052,335.284119 
	C1799.191162,336.529266 1833.998657,348.771790 1862.388794,375.385803 
	C1882.307739,394.058502 1894.237183,417.377899 1899.317749,444.107910 
	C1905.390137,476.055756 1903.791992,507.442047 1890.530640,537.540588 
	C1874.195190,574.616394 1845.182007,597.434265 1807.384888,609.929321 
	C1787.454102,616.518250 1766.871338,619.022766 1745.925049,619.013306 
	C1674.764648,618.981323 1603.604004,618.962341 1532.443970,619.109863 
	C1528.699707,619.117615 1527.338135,617.670959 1526.033691,614.593567 
	C1514.372803,587.085999 1502.515747,559.661499 1490.882935,532.142151 
	C1489.531128,528.944031 1488.000732,527.608582 1484.370972,527.738342 
	C1475.737061,528.046997 1467.084717,527.837769 1458.030273,527.837769 
	C1458.030273,558.137207 1458.030273,588.210754 1458.030273,618.641785 
	C1406.553223,618.641785 1355.484985,618.641785 1304.034302,618.641785 
	C1300.797852,608.138733 1297.333130,597.414978 1294.255249,586.581360 
	C1293.363037,583.440674 1292.068726,582.425720 1288.815308,582.437012 
	C1255.151978,582.554138 1221.487915,582.541870 1187.824463,582.451233 
	C1184.882080,582.443298 1183.478638,583.138611 1182.605347,586.222046 
	C1179.528809,597.084717 1176.046509,607.832520 1172.662720,618.803711 
	C1141.768921,618.803711 1110.847534,618.803711 1079.342285,618.803711 
	C1085.057495,603.206604 1090.641235,587.968140 1096.399414,572.381226 
M1582.243896,533.283081 
	C1594.296143,556.776001 1606.348389,580.268982 1618.400635,603.761963 
	C1618.724243,603.659180 1619.047974,603.556396 1619.371582,603.453613 
	C1619.371582,584.026062 1619.371582,564.598511 1619.371582,544.609558 
	C1621.520996,544.609558 1623.300903,544.617310 1625.080933,544.608398 
	C1665.203491,544.406677 1705.326782,544.299805 1745.448242,543.964050 
	C1769.862793,543.759766 1790.377808,535.354858 1804.200684,514.225037 
	C1815.402832,497.101196 1817.348267,478.271851 1813.188110,458.648529 
	C1807.886230,433.638550 1792.973145,417.705292 1767.817627,411.953522 
	C1747.432739,407.292603 1726.751831,410.521576 1705.691162,409.320496 
	C1705.691162,448.152374 1705.691162,486.366608 1705.691162,524.623291 
	C1676.638672,524.623291 1648.108521,524.623291 1619.113647,524.623291 
	C1619.113647,506.950378 1619.113647,489.615967 1619.113647,473.299347 
	C1613.241455,481.558563 1607.895996,491.047821 1600.639893,498.733124 
	C1593.251709,506.558289 1583.982788,512.607849 1575.320190,519.610474 
	C1577.278931,523.441162 1579.619141,528.017883 1582.243896,533.283081 
M1469.520752,406.166534 
	C1465.739746,406.166534 1461.958740,406.166534 1458.137939,406.166534 
	C1458.137939,423.064789 1458.137939,439.429718 1458.137939,455.962585 
	C1476.760376,455.962585 1495.062988,456.179108 1513.357178,455.880676 
	C1524.185425,455.704041 1534.117554,447.974762 1537.146118,438.337463 
	C1540.116211,428.887177 1536.980835,418.437469 1529.075928,412.395325 
	C1523.489624,408.125427 1516.949951,406.252808 1509.979370,406.196991 
	C1496.824829,406.091644 1483.668945,406.166565 1469.520752,406.166534 
M1234.907349,421.340851 
	C1225.298462,451.012909 1215.689697,480.684967 1206.009277,510.577881 
	C1227.655151,510.577881 1248.852905,510.577881 1270.701538,510.577881 
	C1259.955933,477.306824 1249.347778,444.461304 1238.439941,410.687622 
	C1237.092407,414.626587 1236.076660,417.595520 1234.907349,421.340851 
z"/>
<path fill="#010101" opacity="1.000000" stroke="none" 
	d="
M41.999939,80.164696 
	C31.713434,80.164696 21.926929,80.164696 11.940704,80.164696 
	C11.940704,59.442604 11.940704,39.167217 11.940704,18.412373 
	C13.366160,18.329214 14.787559,18.174171 16.208996,18.173809 
	C64.705864,18.161469 113.202812,18.111242 161.699570,18.186480 
	C185.457977,18.223337 208.040863,22.794308 227.740433,36.993870 
	C232.570709,40.475567 237.055710,44.571331 241.145370,48.907375 
	C245.211594,53.218563 248.580429,58.187523 252.651611,63.373127 
	C252.651611,48.186134 252.651611,33.483597 252.651611,18.474550 
	C281.472534,18.474550 309.886597,18.474550 338.729065,18.474550 
	C338.729065,87.982353 338.729065,157.560257 338.729065,227.831818 
	C340.903503,227.831818 342.659332,227.831818 344.415161,227.831818 
	C373.413300,227.831818 402.412659,227.698776 431.408264,227.969696 
	C435.959839,228.012207 437.601379,226.385056 439.042969,222.455963 
	C463.402252,156.066055 487.900757,89.727264 512.376709,23.380199 
	C513.002441,21.684008 513.721558,20.022289 514.420410,18.286709 
	C550.373657,18.286709 586.188782,18.286709 622.632996,18.286709 
	C657.523743,112.844963 692.476074,207.570129 727.571106,302.681885 
	C696.009949,302.681885 665.219421,302.681885 634.210510,302.681885 
	C630.874023,291.879639 627.410034,281.140472 624.302795,270.299042 
	C623.431152,267.257935 622.325867,266.071808 618.977051,266.085327 
	C585.313110,266.221405 551.648193,266.219238 517.984192,266.087952 
	C514.672852,266.075012 513.490173,267.166138 512.606628,270.260986 
	C509.512329,281.098633 506.038635,291.827972 502.663574,302.745544 
	C419.513855,302.745544 336.554840,302.745544 253.176559,302.745544 
	C253.176559,257.897278 253.176559,213.165298 253.176559,167.450500 
	C251.970215,168.568695 251.359787,168.954102 250.991119,169.502136 
	C232.953873,196.313721 206.731476,208.729462 175.478378,210.789001 
	C155.727783,212.090530 135.841934,211.349564 116.016563,211.500717 
	C110.186714,211.545166 104.356232,211.507568 98.013046,211.507568 
	C98.013046,241.888885 98.013046,272.123993 98.013046,302.595337 
	C69.090652,302.595337 40.681843,302.595337 12.004354,302.595337 
	C12.004354,250.324020 12.004354,198.234360 12.004354,145.822174 
	C49.276592,145.822174 86.500130,145.822174 124.130630,145.822174 
	C124.130630,156.367599 124.130630,166.767303 124.130630,176.980087 
	C145.607193,155.469513 166.969223,134.073639 188.034164,112.975334 
	C167.150757,92.120735 145.734451,70.733955 124.349823,49.378834 
	C124.349823,59.016861 124.349823,69.312965 124.349823,80.164696 
	C96.693787,80.164696 69.596863,80.164696 41.999939,80.164696 
M573.499634,194.503616 
	C582.410156,194.503616 591.320618,194.503616 600.846069,194.503616 
	C589.987976,160.910843 579.399658,128.152542 568.440430,94.246849 
	C557.431946,128.344223 546.828003,161.188599 536.072144,194.503571 
	C548.868774,194.503571 560.684143,194.503571 573.499634,194.503616 
z"/>
<path fill="#020202" opacity="1.000000" stroke="none" 
	d="
M863.835083,282.999603 
	C863.835083,289.784088 863.835083,296.068726 863.835083,302.590363 
	C834.921814,302.590363 806.507507,302.590363 777.482239,302.590363 
	C777.482239,300.738037 777.482239,298.952576 777.482239,297.167114 
	C777.482239,263.015381 777.551086,228.863297 777.365967,194.712555 
	C777.349060,191.607712 776.347717,188.111374 774.714233,185.470642 
	C741.142700,131.198730 707.412598,77.024948 673.715027,22.831011 
	C672.929077,21.567032 672.154907,20.295729 671.068115,18.528429 
	C672.652405,18.382252 673.848389,18.176250 675.044495,18.175526 
	C704.531616,18.157652 734.019287,18.248953 763.505005,18.045500 
	C766.999390,18.021393 768.427795,19.417858 769.898682,22.100962 
	C786.662048,52.679287 803.513489,83.209335 820.606506,114.233459 
	C828.631409,99.432533 836.450500,84.996094 844.283936,70.567413 
	C853.157471,54.222961 861.984497,37.852482 871.021301,21.598753 
	C871.872803,20.067259 874.073853,18.315649 875.658630,18.305729 
	C906.615967,18.111902 937.574829,18.161751 969.409424,18.161751 
	C968.215942,20.173330 967.353271,21.677387 966.443970,23.152699 
	C933.137146,77.191994 899.795166,131.209686 866.609131,185.323090 
	C864.987488,187.967331 863.973267,191.442230 863.952454,194.538940 
	C863.755310,223.858154 863.835083,253.179214 863.835083,282.999603 
z"/>
<path fill="#020202" opacity="1.000000" stroke="none" 
	d="
M433.351318,443.681396 
	C459.224854,503.172943 417.753296,568.369629 355.144501,571.441284 
	C354.830902,563.589478 356.614075,556.102295 362.584137,551.148010 
	C376.053406,539.970276 379.476501,526.281860 377.563141,509.304779 
	C375.272186,488.977295 375.121277,468.408844 374.029236,447.945496 
	C373.958893,446.627258 374.063263,445.176636 373.534485,444.045593 
	C373.124969,443.169525 371.753937,442.074860 370.987366,442.196106 
	C369.935089,442.362610 368.586182,443.409515 368.207642,444.401062 
	C367.703339,445.722046 367.973633,447.352478 367.973206,448.849976 
	C367.965576,474.179535 367.970642,499.509125 367.959656,524.838684 
	C367.959015,526.333374 368.298004,528.070557 367.661499,529.255920 
	C367.000000,530.487854 365.349731,531.901367 364.123291,531.909241 
	C362.983917,531.916565 361.356201,530.385315 360.813019,529.149353 
	C360.188202,527.727539 360.445648,525.886230 360.444489,524.226990 
	C360.427460,499.563965 360.433319,474.900970 360.424347,450.237946 
	C360.423798,448.740479 360.827545,446.974121 360.181183,445.812561 
	C359.344482,444.309082 357.770630,442.596161 356.262573,442.312897 
	C355.322418,442.136292 353.538483,444.247101 352.836975,445.676697 
	C352.236664,446.900146 352.602386,448.615204 352.601868,450.112823 
	C352.593079,474.775848 352.598297,499.438843 352.583130,524.101868 
	C352.582123,525.762207 352.856873,527.599182 352.244873,529.029480 
	C351.706879,530.286804 349.981384,532.004150 349.001617,531.872437 
	C347.605682,531.684753 345.995117,530.220886 345.258179,528.874268 
	C344.620239,527.708618 345.045929,525.946716 345.045593,524.448364 
	C345.040039,499.452087 345.042664,474.455780 345.037842,449.459503 
	C345.037567,448.127319 345.439697,446.529388 344.850952,445.527222 
	C344.032837,444.134583 342.469971,442.317291 341.196747,442.294312 
	C339.897797,442.270844 338.159241,443.966431 337.369812,445.343262 
	C336.712067,446.490479 337.109070,448.265839 337.108551,449.763000 
	C337.099854,474.759308 337.103088,499.755585 337.099274,524.751892 
	C337.099091,526.084412 337.498444,527.658142 336.930847,528.690002 
	C336.177124,530.060364 334.672028,531.867493 333.458099,531.891541 
	C332.282562,531.914856 330.664642,530.116089 329.989044,528.748169 
	C329.388489,527.532227 329.789307,525.809998 329.788971,524.311218 
	C329.783234,499.314941 329.784943,474.318634 329.780243,449.322357 
	C329.779999,447.990295 330.129669,446.474030 329.612946,445.374023 
	C329.003876,444.077515 327.627563,443.141418 326.583923,442.049072 
	C325.649597,443.207489 324.004303,444.303314 323.895966,445.534393 
	C323.180603,453.663147 322.747406,461.818451 322.313080,469.969910 
	C321.373474,487.605347 320.476318,505.243103 319.586548,522.881104 
	C319.175537,531.028870 322.283264,537.735229 327.881836,543.533081 
	C331.572876,547.355591 335.705353,551.031250 338.313934,555.540039 
	C340.873657,559.964417 341.756165,565.359131 343.469727,570.619629 
	C312.576416,571.287842 273.034424,546.755981 261.787598,504.870392 
	C249.075897,457.529114 274.112457,409.930420 321.376343,393.716522 
	C365.296844,378.649597 413.960907,400.061768 433.351318,443.681396 
z"/>
<path fill="#FDFDFD" opacity="1.000000" stroke="none" 
	d="
M170.999725,439.503906 
	C142.562241,439.503906 114.624771,439.503906 86.348129,439.503906 
	C86.348129,428.381714 86.348129,417.527618 86.348129,406.417114 
	C128.199890,406.417114 170.016953,406.417114 211.825394,406.417114 
	C207.578995,417.434174 203.380905,428.325897 199.072464,439.503937 
	C190.127792,439.503937 180.813766,439.503937 170.999725,439.503906 
z"/>
<path fill="#FDFDFD" opacity="1.000000" stroke="none" 
	d="
M656.424683,414.573669 
	C663.310547,422.389038 665.189697,430.994171 661.300293,440.272461 
	C657.179382,450.103027 648.931519,455.392151 638.708740,455.756409 
	C620.287903,456.412750 601.826904,455.941986 583.061523,455.941986 
	C583.061523,439.424774 583.061523,423.074066 583.061523,406.166107 
	C592.352051,406.166107 601.618225,406.065521 610.881226,406.193176 
	C621.002869,406.332642 631.222534,405.924530 641.200134,407.252747 
	C646.412048,407.946533 651.195862,411.856171 656.424683,414.573669 
z"/>
<path fill="#FEFEFE" opacity="1.000000" stroke="none" 
	d="
M723.254883,360.754333 
	C723.516724,361.012146 723.617615,361.426453 723.718506,361.840729 
	C723.471680,361.826416 723.224792,361.812103 722.876099,361.512085 
	C722.774292,361.226318 723.093872,360.910828 723.254883,360.754333 
z"/>
<path fill="#FEFEFE" opacity="1.000000" stroke="none" 
	d="
M1582.101562,532.938843 
	C1579.619141,528.017883 1577.278931,523.441162 1575.320190,519.610474 
	C1583.982788,512.607849 1593.251709,506.558289 1600.639893,498.733124 
	C1607.895996,491.047821 1613.241455,481.558563 1619.113647,473.299347 
	C1619.113647,489.615967 1619.113647,506.950378 1619.113647,524.623291 
	C1648.108521,524.623291 1676.638672,524.623291 1705.691162,524.623291 
	C1705.691162,486.366608 1705.691162,448.152374 1705.691162,409.320496 
	C1726.751831,410.521576 1747.432739,407.292603 1767.817627,411.953522 
	C1792.973145,417.705292 1807.886230,433.638550 1813.188110,458.648529 
	C1817.348267,478.271851 1815.402832,497.101196 1804.200684,514.225037 
	C1790.377808,535.354858 1769.862793,543.759766 1745.448242,543.964050 
	C1705.326782,544.299805 1665.203491,544.406677 1625.080933,544.608398 
	C1623.300903,544.617310 1621.520996,544.609558 1619.371582,544.609558 
	C1619.371582,564.598511 1619.371582,584.026062 1619.371582,603.453613 
	C1619.047974,603.556396 1618.724243,603.659180 1618.400635,603.761963 
	C1606.348389,580.268982 1594.296143,556.776001 1582.101562,532.938843 
z"/>
<path fill="#FDFDFD" opacity="1.000000" stroke="none" 
	d="
M1470.017090,406.166534 
	C1483.668945,406.166565 1496.824829,406.091644 1509.979370,406.196991 
	C1516.949951,406.252808 1523.489624,408.125427 1529.075928,412.395325 
	C1536.980835,418.437469 1540.116211,428.887177 1537.146118,438.337463 
	C1534.117554,447.974762 1524.185425,455.704041 1513.357178,455.880676 
	C1495.062988,456.179108 1476.760376,455.962585 1458.137939,455.962585 
	C1458.137939,439.429718 1458.137939,423.064789 1458.137939,406.166534 
	C1461.958740,406.166534 1465.739746,406.166534 1470.017090,406.166534 
z"/>
<path fill="#FCFCFC" opacity="1.000000" stroke="none" 
	d="
M1234.984131,420.952667 
	C1236.076660,417.595520 1237.092407,414.626587 1238.439941,410.687622 
	C1249.347778,444.461304 1259.955933,477.306824 1270.701538,510.577881 
	C1248.852905,510.577881 1227.655151,510.577881 1206.009277,510.577881 
	C1215.689697,480.684967 1225.298462,451.012909 1234.984131,420.952667 
z"/>
<path fill="#FDFDFD" opacity="1.000000" stroke="none" 
	d="
M572.999634,194.503601 
	C560.684143,194.503571 548.868774,194.503571 536.072144,194.503571 
	C546.828003,161.188599 557.431946,128.344223 568.440430,94.246849 
	C579.399658,128.152542 589.987976,160.910843 600.846069,194.503616 
	C591.320618,194.503616 582.410156,194.503616 572.999634,194.503601 
z"/>
</svg>